<svg width="50" height="50" viewBox="0 0 50 50" fill="none" xmlns="http://www.w3.org/2000/svg">
<path d="M25 0C11.2144 0 0 11.2144 0 25C0 38.7856 11.2144 50 25 50C38.7856 50 50 38.7856 50 25C50 11.2144 38.7856 0 25 0Z" fill="#28A745"/>
<path d="M35.9375 27.0832H27.0832V35.9374C27.0832 37.0876 26.1501 38.0207 25 38.0207C23.8498 38.0207 22.9167 37.0876 22.9167 35.9374V27.0832H14.0625C12.9123 27.0832 11.9792 26.1501 11.9792 25C11.9792 23.8498 12.9123 22.9167 14.0625 22.9167H22.9167V14.0625C22.9167 12.9123 23.8498 11.9792 25 11.9792C26.1501 11.9792 27.0832 12.9123 27.0832 14.0625V22.9167H35.9375C37.0876 22.9167 38.0207 23.8498 38.0207 25C38.0207 26.1501 37.0876 27.0832 35.9375 27.0832V27.0832Z" fill="#FAFAFA"/>
</svg>
