<svg width="25" height="26" viewBox="0 0 25 26" fill="none" xmlns="http://www.w3.org/2000/svg">
<path d="M24.5829 13.7987C23.2401 9.36751 18.9782 6.34356 13.8696 6.25374V1.0741C13.8696 0.834581 13.6653 0.625 13.4318 0.625C13.3442 0.625 13.2566 0.65494 13.169 0.71482L0.178798 10.3555C-0.0255426 10.5052 -0.0547341 10.7747 0.0912236 10.9843C0.120415 11.0142 0.149607 11.0442 0.178798 11.0741L13.169 20.6549C13.3734 20.8046 13.6361 20.7448 13.7821 20.5651C13.8404 20.4753 13.8696 20.3855 13.8696 20.2957V15.146C17.0223 15.146 19.6787 16.6729 20.6129 18.9783C21.4011 20.9543 20.7588 23.0801 18.8906 24.8466C18.7154 25.0262 18.6862 25.2957 18.8614 25.4753C18.949 25.5651 19.0657 25.625 19.1825 25.625H19.5328C19.6204 25.625 19.7079 25.5951 19.7663 25.5352C24.0575 22.631 25.8965 18.11 24.5829 13.7987Z" fill="black"/>
</svg>
