<svg width="46" height="50" viewBox="0 0 46 50" fill="none" xmlns="http://www.w3.org/2000/svg">
<path d="M42.3379 17.8848H41.1375V12.0912C41.1375 12.0548 41.1316 12.0187 41.1269 11.9818C41.125 11.752 41.0517 11.5258 40.8942 11.3471L31.254 0.335315C31.2512 0.332214 31.2482 0.331302 31.2462 0.328475C31.1889 0.264002 31.1219 0.210655 31.051 0.164694C31.0299 0.150376 31.0089 0.138613 30.9868 0.126484C30.9255 0.0931987 30.8604 0.0652026 30.7934 0.0450491C30.7752 0.0403071 30.759 0.0328293 30.7409 0.0279049C30.6679 0.0107607 30.5923 0 30.5159 0H6.82359C5.74168 0 4.86285 0.879916 4.86285 1.96082V17.8842H3.66249C2.11476 17.8842 0.859863 19.1386 0.859863 20.6866V35.26C0.859863 36.8072 2.11476 38.0629 3.66249 38.0629H4.86285V48.0393C4.86285 49.1203 5.74168 50 6.82359 50H39.1766C40.2575 50 41.1375 49.1203 41.1375 48.0393V38.063H42.3379C43.8851 38.063 45.1402 36.8078 45.1402 35.2606V20.6871C45.1403 19.1387 43.8851 17.8848 42.3379 17.8848ZM6.82359 1.96082H29.5354V11.9925C29.5354 12.5342 29.9747 12.9729 30.5158 12.9729H39.1766V17.8847H6.82359V1.96082ZM21.5841 28.5596C19.1511 27.7124 17.5659 26.3662 17.5659 24.2381C17.5659 21.7391 19.6507 19.8273 23.1043 19.8273C24.7555 19.8273 25.972 20.1749 26.8403 20.5666L26.1025 23.2386C25.5162 22.9552 24.4736 22.5426 23.0394 22.5426C21.6061 22.5426 20.911 23.1945 20.911 23.9547C20.911 24.8892 21.736 25.3015 23.6267 26.0186C26.2112 26.9742 27.4277 28.3202 27.4277 30.3843C27.4277 32.8382 25.5381 34.9244 21.5192 34.9244C19.8469 34.9244 18.1953 34.4889 17.3702 34.0335L18.0432 31.2962C18.9343 31.7535 20.3025 32.2087 21.715 32.2087C23.2353 32.2087 24.0393 31.5788 24.0393 30.6223C24.0388 29.7095 23.3433 29.1887 21.5841 28.5596ZM4.33558 27.6032C4.33558 22.6076 7.89884 19.8273 12.329 19.8273C14.0454 19.8273 15.3486 20.1749 15.9356 20.4793L15.2615 23.1071C14.5885 22.8258 13.6536 22.5655 12.4809 22.5655C9.85255 22.5655 7.81129 24.1499 7.81129 27.4077C7.81129 30.3403 9.54861 32.1862 12.5037 32.1862C13.502 32.1862 14.61 31.9693 15.2615 31.7085L15.7615 34.2935C15.153 34.598 13.785 34.9244 12.0036 34.9244C6.94241 34.9245 4.33558 31.7736 4.33558 27.6032ZM39.1766 47.5078H6.82359V38.063H39.1766V47.5078ZM36.9866 34.7063H33.1201L28.4282 20.0666H32.0565L33.8371 26.258C34.3368 27.9949 34.7927 29.6674 35.1411 31.4922H35.2057C35.5749 29.7324 36.0306 27.9948 36.5304 26.3222L38.3987 20.0666H41.9186L36.9866 34.7063Z" fill="black"/>
</svg>
