<svg width="50" height="50" viewBox="0 0 50 50" fill="none" xmlns="http://www.w3.org/2000/svg">
<path d="M50 25C50 38.8073 38.8073 50 25 50C11.1927 50 0 38.8073 0 25C0 11.1927 11.1927 0 25 0C38.8073 0 50 11.1927 50 25Z" fill="#FFC107"/>
<path d="M39.8537 10.1463C38.562 8.855 36.845 8.14355 35.0185 8.14355C33.1921 8.14355 31.4751 8.855 30.1834 10.1463L11.525 28.8051C11.3464 28.9836 11.2171 29.2049 11.1496 29.4483L8.21839 39.9772C8.07648 40.4876 8.22106 41.035 8.5968 41.4085C8.87528 41.6854 9.24797 41.835 9.62982 41.835C9.76334 41.835 9.898 41.8167 10.03 41.7793L20.5593 38.7885C21.0583 38.6466 21.4455 38.2511 21.5763 37.749C21.7072 37.2466 21.5626 36.7126 21.1964 36.3452L14.6721 29.8011L29.9107 14.5622L35.4343 20.0862L23.7083 31.7798C23.1358 32.3512 23.1342 33.2786 23.7057 33.8516C24.2771 34.4245 25.2045 34.4257 25.7774 33.8542L39.8537 19.8165C41.1453 18.5249 41.8564 16.8079 41.8564 14.9814C41.8564 13.1549 41.1449 11.4379 39.8537 10.1463V10.1463ZM17.3637 36.6504L11.7413 38.2476L13.316 32.59L17.3637 36.6504ZM37.7834 17.7432L37.5088 18.0171L31.982 12.4908L32.2552 12.218C32.9933 11.4799 33.9745 11.0732 35.0185 11.0732C36.0626 11.0732 37.0438 11.4799 37.7819 12.218C38.52 12.9562 38.9267 13.9373 38.9267 14.9814C38.9267 16.0251 38.52 17.0066 37.7834 17.7432Z" fill="white"/>
</svg>
