<svg width="50" height="50" viewBox="0 0 50 50" fill="none" xmlns="http://www.w3.org/2000/svg">
<path d="M48.4375 7.81363H28.125V3.12613C28.125 2.6605 27.9188 2.21988 27.5594 1.923C27.2031 1.62613 26.725 1.498 26.275 1.59175L1.275 6.27925C0.534375 6.41675 0 7.0605 0 7.81363V42.1886C0 42.9386 0.534375 43.5855 1.275 43.723L26.275 48.4105C26.3687 48.4293 26.4656 48.4386 26.5625 48.4386C26.925 48.4386 27.2781 48.3136 27.5594 48.0793C27.9188 47.7824 28.125 47.3386 28.125 46.8761V42.1886H48.4375C49.3 42.1886 50 41.4886 50 40.6261V9.37613C50 8.51363 49.3 7.81363 48.4375 7.81363ZM21.4875 30.223C22.0562 30.8699 21.9906 31.8574 21.3406 32.4261C21.0437 32.6855 20.6781 32.8136 20.3125 32.8136C19.8781 32.8136 19.4469 32.6324 19.1375 32.2793L14.5938 27.0886L10.6094 32.2136C10.3 32.6074 9.8375 32.8136 9.375 32.8136C9.04062 32.8136 8.70313 32.7074 8.41563 32.4855C7.73438 31.9543 7.6125 30.973 8.14063 30.2918L12.4969 24.6918L8.2 19.7793C7.63125 19.1324 7.69687 18.1449 8.34688 17.5761C8.99375 17.0074 9.97813 17.0699 10.5531 17.723L14.4531 22.1793L19.0812 16.2293C19.6125 15.5511 20.5938 15.4261 21.275 15.9574C21.9563 16.4855 22.0781 17.4668 21.5469 18.1511L16.5469 24.5761L21.4875 30.223ZM46.875 39.0636H28.125V35.9386H32.8125C33.675 35.9386 34.375 35.2386 34.375 34.3761C34.375 33.5136 33.675 32.8136 32.8125 32.8136H28.125V29.6886H32.8125C33.675 29.6886 34.375 28.9886 34.375 28.1261C34.375 27.2636 33.675 26.5636 32.8125 26.5636H28.125V23.4386H32.8125C33.675 23.4386 34.375 22.7386 34.375 21.8761C34.375 21.0136 33.675 20.3136 32.8125 20.3136H28.125V17.1886H32.8125C33.675 17.1886 34.375 16.4886 34.375 15.6261C34.375 14.7636 33.675 14.0636 32.8125 14.0636H28.125V10.9386H46.875V39.0636Z" fill="black"/>
<path d="M42.1875 14.0635H39.0625C38.2 14.0635 37.5 14.7635 37.5 15.626C37.5 16.4885 38.2 17.1885 39.0625 17.1885H42.1875C43.05 17.1885 43.75 16.4885 43.75 15.626C43.75 14.7635 43.05 14.0635 42.1875 14.0635Z" fill="black"/>
<path d="M42.1875 20.3135H39.0625C38.2 20.3135 37.5 21.0135 37.5 21.876C37.5 22.7385 38.2 23.4385 39.0625 23.4385H42.1875C43.05 23.4385 43.75 22.7385 43.75 21.876C43.75 21.0135 43.05 20.3135 42.1875 20.3135Z" fill="black"/>
<path d="M42.1875 26.5635H39.0625C38.2 26.5635 37.5 27.2635 37.5 28.126C37.5 28.9885 38.2 29.6885 39.0625 29.6885H42.1875C43.05 29.6885 43.75 28.9885 43.75 28.126C43.75 27.2635 43.05 26.5635 42.1875 26.5635Z" fill="black"/>
<path d="M42.1875 32.8135H39.0625C38.2 32.8135 37.5 33.5135 37.5 34.376C37.5 35.2385 38.2 35.9385 39.0625 35.9385H42.1875C43.05 35.9385 43.75 35.2385 43.75 34.376C43.75 33.5135 43.05 32.8135 42.1875 32.8135Z" fill="black"/>
</svg>
