<svg width="60" height="60" viewBox="0 0 60 60" fill="none" xmlns="http://www.w3.org/2000/svg">
<g clip-path="url(#clip0)">
<path d="M39.4581 8.77067C38.2485 8.30848 36.894 8.91352 36.4317 10.1227C35.9694 11.3316 36.5747 12.6866 37.7836 13.1489C46.0682 16.3171 51.7969 24.3028 51.7969 33.5156C51.7969 45.5345 42.0189 55.3125 30 55.3125C17.9811 55.3125 8.20312 45.5345 8.20312 33.5156C8.20312 24.2978 13.9345 16.3165 22.2156 13.1493C23.4246 12.6868 24.0298 11.3318 23.5675 10.1229C23.1049 8.91387 21.7496 8.30883 20.5411 8.77102C10.4514 12.6301 3.51562 22.3467 3.51562 33.5156C3.51562 48.1549 15.3621 60 30 60C44.6393 60 56.4844 48.1535 56.4844 33.5156C56.4844 22.3418 49.5443 12.628 39.4581 8.77067Z" fill="white"/>
<path d="M30 0C28.7055 0 27.6562 1.0493 27.6562 2.34375V25.295C27.6562 26.5895 28.7055 27.6388 30 27.6388C31.2945 27.6388 32.3438 26.5894 32.3438 25.295V2.34375C32.3438 1.0493 31.2945 0 30 0Z" fill="white"/>
</g>
<defs>
<clipPath id="clip0">
<rect width="60" height="60" fill="white"/>
</clipPath>
</defs>
</svg>
