<svg width="50" height="50" viewBox="0 0 50 50" fill="none" xmlns="http://www.w3.org/2000/svg">
<g clip-path="url(#clip0)">
<path d="M24.2685 37.645C23.6682 37.645 23.2805 37.6981 23.0509 37.7508V45.5322C23.2809 45.5854 23.6515 45.5854 23.9863 45.5854C26.4207 45.6025 28.0091 44.2622 28.0091 41.4211C28.0263 38.9505 26.5798 37.645 24.2685 37.645Z" fill="black"/>
<path d="M13.8742 37.6099C13.3275 37.6099 12.957 37.6625 12.7623 37.7152V41.227C12.9921 41.2796 13.2746 41.2978 13.6613 41.2978C15.0917 41.2978 15.9735 40.574 15.9735 39.3566C15.9736 38.2628 15.2144 37.6099 13.8742 37.6099Z" fill="black"/>
<path d="M43.1277 11.9818C43.1248 11.7525 43.0521 11.526 42.8946 11.347L33.2538 0.33533C33.2519 0.332243 33.2482 0.331245 33.2462 0.328431C33.1887 0.264252 33.1227 0.211329 33.0518 0.164669C33.0308 0.151053 33.0087 0.138798 32.9867 0.126361C32.9254 0.0931371 32.8612 0.0655409 32.7933 0.0453884C32.7761 0.0401234 32.7588 0.0326797 32.7406 0.0279593C32.6679 0.0103486 32.5923 0 32.5166 0H8.82357C7.7426 0 6.86279 0.8799 6.86279 1.96087V48.0392C6.86279 49.1206 7.7426 50.0001 8.82357 50.0001H41.1765C42.2574 50.0001 43.1373 49.1206 43.1373 48.0392V12.0917C43.1372 12.0548 43.1315 12.0187 43.1277 11.9818ZM17.5437 42.1089C16.6265 42.9734 15.2677 43.3622 13.6794 43.3622C13.327 43.3622 13.0085 43.3441 12.7624 43.3096V47.5615H10.0981V35.8274C10.927 35.6867 12.0922 35.5804 13.7334 35.5804C15.3916 35.5804 16.574 35.8982 17.3678 36.533C18.1269 37.1332 18.6373 38.1213 18.6373 39.2855C18.6373 40.4506 18.25 41.4387 17.5437 42.1089ZM28.89 46.1502C27.6386 47.1909 25.7329 47.6849 23.4045 47.6849C22.0103 47.6849 21.0227 47.5969 20.3511 47.5088V35.8274C21.3393 35.6694 22.628 35.5804 23.9863 35.5804C26.2437 35.5804 27.7085 35.9863 28.856 36.8508C30.0915 37.7684 30.868 39.2329 30.868 41.3324C30.867 43.6092 30.0379 45.1794 28.89 46.1502ZM39.903 37.8744H35.3323V40.5915H39.6024V42.7801H35.3323V47.5615H32.6334V35.6694H39.903V37.8744ZM8.82357 33.2926V1.96087H31.5362V11.9931C31.5362 12.5342 31.9748 12.9735 32.5166 12.9735H41.1765L41.1774 33.2926H8.82357Z" fill="black"/>
<path d="M35.0586 21.0724C35.0012 21.067 33.6196 20.9409 31.499 20.9409C30.8346 20.9409 30.1654 20.9539 29.5047 20.9788C25.3169 17.8361 21.8868 14.691 20.0505 12.9283C20.084 12.7343 20.107 12.5808 20.1177 12.463C20.3599 9.90628 20.0907 8.18025 19.3202 7.33276C18.8156 6.77893 18.0746 6.59465 17.3019 6.80571C16.8221 6.93143 15.9338 7.39694 15.6494 8.34456C15.3354 9.39176 15.8402 10.6627 17.1661 12.1366C17.1872 12.1589 17.6372 12.6304 18.4548 13.4293C17.9234 15.9632 16.5323 21.4311 15.8574 24.0569C14.2722 24.9039 12.9514 25.9242 11.9288 27.0947L11.8619 27.1713L11.8186 27.2633C11.7133 27.4845 11.2099 28.6328 11.5878 29.5553C11.7604 29.9747 12.0837 30.2811 12.523 30.4419L12.6407 30.4736C12.6407 30.4736 12.7469 30.4966 12.9337 30.4966C13.7516 30.4966 15.7704 30.0667 16.8533 26.0762L17.1157 25.0651C20.8955 23.2279 25.6204 22.6352 29.0451 22.4701C30.8067 23.7764 32.5597 24.9765 34.2582 26.0392L34.3137 26.0714C34.396 26.1135 35.1409 26.4812 36.0131 26.4821C37.2597 26.4821 38.1702 25.7171 38.5091 24.3839L38.5263 24.2928C38.6211 23.5309 38.4296 22.8442 37.9729 22.3073C37.0109 21.1764 35.2196 21.0778 35.0586 21.0724ZM12.9642 29.0253C12.9565 29.0162 12.9529 29.0076 12.9491 28.998C12.8678 28.8022 12.9653 28.3273 13.1089 27.9793C13.7255 27.29 14.4656 26.6572 15.3196 26.0874C14.4879 28.7797 13.2784 29.0125 12.9642 29.0253ZM18.2448 11.1378C16.9676 9.71601 16.9868 9.01113 17.0555 8.77384C17.1682 8.37724 17.6771 8.22736 17.6815 8.226C17.9378 8.15629 18.0934 8.16999 18.2319 8.32204C18.5452 8.66618 18.8143 9.70476 18.708 11.6098C18.4064 11.3068 18.2448 11.1378 18.2448 11.1378ZM17.5849 23.2449L17.6069 23.1607L17.604 23.1617C18.2436 20.6569 19.1659 16.9892 19.6962 14.6333L19.7153 14.6516L19.7172 14.6403C21.4329 16.2559 24.0636 18.6191 27.2135 21.077L27.1781 21.0785L27.2302 21.1178C24.2629 21.3684 20.7188 21.9534 17.5849 23.2449ZM37.0721 24.0667C36.8462 24.8969 36.4116 25.0104 36.0132 25.0104C35.5508 25.0104 35.1056 24.8179 35.0042 24.7715C33.8476 24.0465 32.6643 23.2566 31.4703 22.4114C31.4798 22.4114 31.4885 22.4114 31.499 22.4114C33.5459 22.4114 34.9093 22.5357 34.9628 22.5395C35.3047 22.5522 36.3866 22.712 36.8528 23.2601C37.0356 23.475 37.1056 23.7318 37.0721 24.0667Z" fill="black"/>
</g>
<defs>
<clipPath id="clip0">
<rect width="50" height="50" fill="white"/>
</clipPath>
</defs>
</svg>
