<svg width="50" height="50" viewBox="0 0 50 50" fill="none" xmlns="http://www.w3.org/2000/svg">
<path d="M32.2575 19.7832H17.7418C17.4131 19.7832 17.1453 20.0511 17.1453 20.3797V35.0947C17.1453 35.4234 17.4131 35.6913 17.7418 35.6913H32.2575C32.5862 35.6913 32.8541 35.4234 32.8541 35.0947V20.3797C32.8541 20.0505 32.5862 19.7832 32.2575 19.7832ZM20.8242 33.5037C20.8242 33.833 20.5569 34.1003 20.2276 34.1003C19.8983 34.1003 19.6311 33.833 19.6311 33.5037V22.1694C19.6311 21.8401 19.8983 21.5728 20.2276 21.5728C20.5569 21.5728 20.8242 21.8401 20.8242 22.1694V33.5037ZM23.2103 33.5037C23.2103 33.833 22.9431 34.1003 22.6138 34.1003C22.2845 34.1003 22.0172 33.833 22.0172 33.5037V22.1694C22.0172 21.8401 22.2845 21.5728 22.6138 21.5728C22.9431 21.5728 23.2103 21.8401 23.2103 22.1694V33.5037ZM25.5965 33.5037C25.5965 33.833 25.3293 34.1003 25 34.1003C24.6707 34.1003 24.4034 33.833 24.4034 33.5037V22.1694C24.4034 21.8401 24.6707 21.5728 25 21.5728C25.3293 21.5728 25.5965 21.8401 25.5965 22.1694V33.5037ZM27.9827 33.5037C27.9827 33.833 27.7154 34.1003 27.3862 34.1003C27.0563 34.1003 26.7896 33.833 26.7896 33.5037V22.1694C26.7896 21.8401 27.0563 21.5728 27.3862 21.5728C27.7154 21.5728 27.9827 21.8401 27.9827 22.1694V33.5037ZM30.3689 33.5037C30.3689 33.833 30.1016 34.1003 29.7723 34.1003C29.4424 34.1003 29.1758 33.833 29.1758 33.5037V22.1694C29.1758 21.8401 29.4424 21.5728 29.7723 21.5728C30.1016 21.5728 30.3689 21.8401 30.3689 22.1694V33.5037Z" fill="#DC3545"/>
<path d="M32.2576 14.6356H27.9822C27.6529 14.6356 27.3857 14.3684 27.3857 14.0391V13.5189C27.3857 13.1902 27.1178 12.9224 26.7891 12.9224H23.2098C22.8812 12.9224 22.6133 13.1902 22.6133 13.5189V14.0391C22.6133 14.3684 22.3461 14.6356 22.0168 14.6356H17.7413C17.4126 14.6356 17.1448 14.9035 17.1448 15.2322V15.9051C17.1448 16.2338 17.4126 16.5016 17.7413 16.5016H32.257C32.5857 16.5016 32.8536 16.2338 32.8536 15.9051V15.2322C32.8542 14.9035 32.5863 14.6356 32.2576 14.6356Z" fill="#DC3545"/>
<path d="M25 0C11.1924 0 0 11.193 0 25.0006C0 38.8082 11.193 50 25 50C38.807 50 50 38.8076 50 25.0006C50 11.193 38.807 0 25 0ZM34.0472 35.0941C34.0472 36.0802 33.2442 36.8838 32.2576 36.8838H17.7418C16.7552 36.8838 15.9522 36.0802 15.9522 35.0941V20.3798C15.9522 19.3931 16.7552 18.5901 17.7418 18.5901H32.2576C33.2442 18.5901 34.0472 19.3931 34.0472 20.3798V35.0941ZM34.0472 15.9057C34.0472 16.8924 33.2442 17.6953 32.2576 17.6953H17.7418C16.7552 17.6953 15.9522 16.8924 15.9522 15.9057V15.2328C15.9522 14.2461 16.7552 13.4431 17.7418 13.4431H21.4219C21.4619 12.4916 22.2487 11.7299 23.2098 11.7299H26.789C27.7495 11.7299 28.5375 12.4916 28.5769 13.4431H32.257C33.2431 13.4431 34.0466 14.2461 34.0466 15.2328L34.0472 15.9057Z" fill="#DC3545"/>
</svg>
